<?xml version="1.0" encoding="utf-8"?>
<!-- Generator: Adobe Illustrator 25.2.3, SVG Export Plug-In . SVG Version: 6.00 Build 0)  -->
<svg version="1.1" id="Capa_1" xmlns="http://www.w3.org/2000/svg" xmlns:xlink="http://www.w3.org/1999/xlink" x="0px" y="0px"
	 viewBox="0 0 533 533" style="enable-background:new 0 0 533 533;" xml:space="preserve">
<style type="text/css">
	.st0{fill:#FEFEFE;}
	.st1{fill:#11703C;stroke:#11703C;stroke-width:20;stroke-miterlimit:10;}
	.st2{fill:#262626;}
</style>
<polygon class="st0" points="93.2,507.9 108.4,375.5 215.4,454.9 "/>
<circle class="st0" cx="266.5" cy="265.5" r="242.4"/>
<path class="st1" d="M108.2,521c-7.4,0-14.9-2.1-21.5-6.1c-12.1-7.5-19.4-20.5-19.4-34.8v-59.9c-42.7-54.1-61.2-121.8-52-191.1
	C30,117.8,121.5,26.5,232.8,12.2C311.2,2,388.2,27.7,444.1,82.7c55.9,54.9,82.9,131.4,74.2,209.8c-12.6,113.6-104.4,207-218.1,222.2
	c-45.3,6-91.2-0.3-133.2-18.3l-40.5,20.3C120.7,519.6,114.4,521,108.2,521z M237.4,48.1C142.1,60.4,63.8,138.5,51.2,233.8
	c-8.1,61.5,9,121.3,48.2,168.4c2.7,3.3,4.2,7.4,4.2,11.6v66.3c0,2.1,1.2,3.3,2.2,4c1,0.6,2.6,1.1,4.5,0.2l48.2-24.1
	c4.9-2.5,10.8-2.6,15.8-0.2c37.9,17.8,79.8,24.3,121.2,18.8c97.5-13,176-93,186.9-190.3c7.5-67.3-15.7-132.9-63.6-180
	C370.8,61.4,304.8,39.4,237.4,48.1z M235.1,30.1h0.2H235.1z"/>
<path class="st2" d="M400.2,324.4c-7.3-3.7-43.6-21.5-50.4-24c-6.7-2.5-11.6-3.7-16.6,3.7c-4.9,7.3-19.1,24-23.4,29
	c-4.3,4.9-8.6,5.6-15.9,1.9c-7.3-3.7-31.2-11.5-59.4-36.7c-21.9-19.5-36.8-43.8-41.1-51.1c-4.3-7.3-0.5-11.4,3.3-15
	c3.4-3.3,7.3-8.6,11.1-12.9c3.7-4.3,4.9-7.3,7.3-12.3c2.4-4.9,1.3-9.2-0.6-12.9c-1.9-3.7-16.6-40-22.7-54.8
	c-5.9-14.4-12.1-12.5-16.6-12.7c-4.3-0.2-9.2-0.2-14.1-0.2c-4.9,0-12.9,1.9-19.7,9.2c-6.8,7.3-25.8,25.2-25.8,61.6
	s26.4,71.3,30.1,76.3c3.7,4.9,52,79.5,126,111.4c17.6,7.6,31.3,12.1,42,15.6c17.7,5.6,33.8,4.8,46.4,2.9c14.2-2.1,43.6-17.8,49.8-35
	s6.2-32,4.3-35C412.6,330,407.7,328.1,400.2,324.4L400.2,324.4z"/>
</svg>
