<svg id="Capa_1" data-name="Capa 1" xmlns="http://www.w3.org/2000/svg" viewBox="0 0 225.89 309.81"><defs><style>.cls-1{fill:#11703c;}.cls-2{fill:#1aaa5a;}</style></defs><polygon class="cls-1" points="225.88 154.66 142.93 193.55 67.75 265.93 155.89 227.25 225.88 154.66"/><path class="cls-1" d="M204.66,93.58s-75.18,49-95.92,49-80.37,85.77-80.37,85.77,80.37-33.7,88.15-44.07Z" transform="translate(-4.7 -6.32)"/><path class="cls-1" d="M5.11,158.26c2.59,0,46.6-23.2,75.11-31l80.23-77.65S80.22,96.17,64.67,96.17Z" transform="translate(-4.7 -6.32)"/><path class="cls-2" d="M94.37,299.3l21.14,16.44a1.77,1.77,0,0,0,2.07.1C129,308.41,228.14,241.6,230.58,161c0,0-64.18,61.62-136.35,136.31A1.37,1.37,0,0,0,94.37,299.3Z" transform="translate(-4.7 -6.32)"/><path class="cls-2" d="M52.08,252.09l20,20a.54.54,0,0,0,.76,0c8.17-7.45,145-132.33,150-147.42,0,0-5.19-20.74-18.15-31.11,0,0-147.13,144.63-152.79,157.53A.88.88,0,0,0,52.08,252.09Z" transform="translate(-4.7 -6.32)"/><path class="cls-2" d="M12.82,194.68s7.78,31.11,15.55,33.7C35.78,230.85,162.94,87.73,181.9,73.91a2.14,2.14,0,0,0,.46-3.09c-4.09-5.23-15.26-18.94-21.58-21.25a.33.33,0,0,0-.33.06C155.45,54.17,20.45,176.87,12.82,194.68Z" transform="translate(-4.7 -6.32)"/><path class="cls-2" d="M15,105.51c-2.25,7.85-12,43-10,52.61a.14.14,0,0,0,.25.06C9.52,153.62,83.62,73.13,134,27.81c.05-.06-8.45-15-18.66-21.36-6.53-4-88.51,84.74-98.82,96.28A7.1,7.1,0,0,0,15,105.51Z" transform="translate(-4.7 -6.32)"/></svg>