<?xml version="1.0" encoding="utf-8"?>
<!-- Generator: Adobe Illustrator 25.2.3, SVG Export Plug-In . SVG Version: 6.00 Build 0)  -->
<svg version="1.1" id="Capa_1" xmlns="http://www.w3.org/2000/svg" xmlns:xlink="http://www.w3.org/1999/xlink" x="0px" y="0px"
	 viewBox="0 0 512 512" style="enable-background:new 0 0 512 512;" xml:space="preserve">
<style type="text/css">
	.st0{fill:#FEFEFE;}
	.st1{fill:#262626;}
</style>
<circle class="st0" cx="256" cy="256" r="256"/>
<g>
	<g>
		<path class="st1" d="M346.9,64.8c-26.6-12.1-57.2-18.2-90.9-18.2c-34,0-64.6,6.1-90.9,18.3c-4.4,2-6.3,7.2-4.3,11.6
			c2,4.4,7.2,6.3,11.6,4.3c24-11,52.2-16.6,83.6-16.6c31.2,0,59.4,5.6,83.6,16.7c1.2,0.5,2.4,0.8,3.6,0.8c3.3,0,6.5-1.9,8-5.1
			C353.2,72,351.3,66.8,346.9,64.8z"/>
	</g>
</g>
<g>
	<g>
		<path class="st1" d="M384.4,136.4c-35.4-36-79.8-55-128.4-55c-48.4,0-92.8,19-128.3,54.9c-3.4,3.4-3.4,9,0.1,12.4
			c3.4,3.4,9,3.3,12.3-0.1c32.2-32.6,72.2-49.8,115.9-49.8c43.9,0,84,17.2,116,49.8c1.7,1.7,4,2.6,6.2,2.6c2.2,0,4.4-0.8,6.1-2.5
			C387.7,145.4,387.8,139.9,384.4,136.4z"/>
	</g>
</g>
<g>
	<g>
		<path class="st1" d="M256,116.4c-12.4,0-24.8,1.5-36.7,4.6c-4.7,1.2-7.5,5.9-6.3,10.6c1.2,4.7,6,7.5,10.6,6.3
			c10.5-2.7,21.4-4,32.4-4c72.2,0,130.9,58.7,130.9,130.9c0,4.8,3.9,8.7,8.7,8.7c4.8,0,8.7-3.9,8.7-8.7
			C404.3,182.9,337.8,116.4,256,116.4z"/>
	</g>
</g>
<g>
	<g>
		<path class="st1" d="M193.4,139.6c-2.4-4.1-7.7-5.5-11.9-3.1c-11.1,6.5-21.5,14.6-30.7,23.9c-27.2,27.5-42.5,64.5-43.1,104.3
			c-0.1,4.8,3.8,8.8,8.6,8.8c0,0,0.1,0,0.1,0c4.7,0,8.6-3.8,8.7-8.6c0.6-35.3,14.1-68,38.1-92.3c8.2-8.3,17.3-15.4,27.1-21.1
			C194.5,149.1,195.9,143.7,193.4,139.6z"/>
	</g>
</g>
<g>
	<g>
		<path class="st1" d="M341.5,190.3c-21.6-24.8-52.8-39-85.5-39c-30.4,0-59,11.9-80.4,33.6c-21.3,21.5-33.1,50.7-33.1,82.4
			c0.1,18.8-5.8,41.3-16.3,62.9l-4.9,8.7c-2.4,4.2-0.9,9.5,3.3,11.9c1.4,0.8,2.8,1.1,4.3,1.1c3.1,0,6-1.6,7.6-4.5l5.1-9.2
			c12.1-24.8,18.4-49.4,18.3-71.5c0-26.7,9.9-51.5,28-69.7c18.1-18.3,42.2-28.4,68-28.4c27.7,0,54.1,12,72.4,33
			c3.2,3.6,8.7,4,12.3,0.8C344.3,199.4,344.7,193.9,341.5,190.3z"/>
	</g>
</g>
<g>
	<g>
		<path class="st1" d="M385.7,365.3l-9.8-32.2c-5.5-25.3-6-49.4-6.3-63.8l-0.1-4.6c0-12.9-2.2-25.6-6.5-37.8
			c-1.6-4.5-6.5-6.9-11.1-5.3c-4.5,1.6-6.9,6.6-5.3,11.1c3.6,10.2,5.5,21,5.5,32.2l0.1,4.7c0.3,15,0.8,40.2,6.9,67.8l10,32.9
			c1.1,3.8,4.6,6.2,8.4,6.2c0.8,0,1.7-0.1,2.5-0.4C384.4,374.8,387.1,369.9,385.7,365.3z"/>
	</g>
</g>
<g>
	<g>
		<path class="st1" d="M360.2,405.6l-8.1-26c-14.4-45-17.1-95.5-17.6-114.9c0-43.3-35.2-78.5-78.5-78.5s-78.5,35.8-78.5,80.1
			c0,9.2-1.7,57.7-38.5,110.8c-2.8,4-1.8,9.4,2.2,12.1c3.9,2.7,9.4,1.8,12.1-2.2c38.8-56,41.7-106.7,41.6-121.1
			c0-34.4,27.4-62.3,61.1-62.3c33.7,0,61.1,27.4,61.1,61.3c0.6,25.3,3.9,74.6,18.4,120l8.1,25.9c1.2,3.7,4.6,6.1,8.3,6.1
			c0.9,0,1.7-0.1,2.6-0.4C359.1,415.1,361.6,410.2,360.2,405.6z"/>
	</g>
</g>
<g>
	<g>
		<path class="st1" d="M299.6,264.7c0-24-19.6-43.6-43.6-43.6s-43.6,19.6-43.6,44c0.1,2.9,2,71.4-53.4,143.6
			c-2.9,3.8-2.2,9.3,1.6,12.2c3.8,2.9,9.3,2.2,12.2-1.6c59.2-77.1,57.1-151.7,57-154.5c0-14.4,11.7-26.2,26.2-26.2
			c14.4,0,26.2,11.7,26.2,26.4c0.2,9.8,0.3,97.9-67.8,186.5c-2.9,3.8-2.2,9.3,1.6,12.2c1.6,1.2,3.5,1.8,5.3,1.8
			c2.6,0,5.2-1.2,6.9-3.4C300.1,368.6,299.9,274.9,299.6,264.7z"/>
	</g>
</g>
<g>
	<g>
		<path class="st1" d="M264.7,264.3c-0.2-4.8-4-8.6-9.1-8.3c-4.8,0.2-8.5,4.3-8.3,9.1c0,0.1,0.5,12.9-2.8,33.1
			c-0.8,4.8,2.5,9.3,7.2,10c0.5,0.1,0.9,0.1,1.4,0.1c4.2,0,7.9-3.1,8.6-7.3C265.3,278.8,264.7,264.9,264.7,264.3z"/>
	</g>
</g>
<g>
	<g>
		<path class="st1" d="M247.6,326.4c-4.6-1.4-9.5,1.3-10.9,5.9c-10.9,36.8-29.1,71.3-53.9,102.4c-3,3.8-2.4,9.3,1.4,12.3
			c1.6,1.3,3.5,1.9,5.4,1.9c2.6,0,5.1-1.1,6.8-3.3c26.3-32.9,45.4-69.3,57-108.3C254.8,332.6,252.2,327.8,247.6,326.4z"/>
	</g>
</g>
<g>
	<g>
		<path class="st1" d="M332.1,431l-10.5-33.4c-4.2-12.5-8.1-25.8-8.1-25.8c-1-3.5-4.2-6-7.9-6.2c-3.8-0.3-7.1,1.9-8.5,5.3
			c-0.2,0.5-19.6,46.2-41.9,81.2c-2.6,4.1-1.4,9.5,2.7,12c1.4,0.9,3.1,1.4,4.7,1.4c2.9,0,5.7-1.4,7.4-4
			c13.5-21.2,25.7-45.7,33.7-62.6c0.5,1.4,0.9,2.8,1.4,4.2l10.5,33.3c1.4,4.6,6.3,7.2,10.9,5.7C331,440.5,333.6,435.6,332.1,431z"/>
	</g>
</g>
</svg>
