<?xml version="1.0" encoding="utf-8"?>
<!-- Generator: Adobe Illustrator 25.2.3, SVG Export Plug-In . SVG Version: 6.00 Build 0)  -->
<svg version="1.1" id="Capa_1" xmlns="http://www.w3.org/2000/svg" xmlns:xlink="http://www.w3.org/1999/xlink" x="0px" y="0px"
	 viewBox="0 0 512 512" style="enable-background:new 0 0 512 512;" xml:space="preserve">
<style type="text/css">
	.st0{fill:#FEFEFE;}
	.st1{fill:#262626;}
</style>
<circle class="st0" cx="256" cy="256" r="256"/>
<g>
	<g>
		<path class="st1" d="M335.1,89.7C312,79.1,285.4,73.8,256,73.8c-29.6,0-56.2,5.3-79.1,15.9c-3.8,1.7-5.5,6.3-3.7,10.1
			c1.8,3.8,6.2,5.5,10.1,3.7C204.2,93.8,228.7,89,256,89c27.2,0,51.6,4.9,72.8,14.5c1,0.5,2.1,0.7,3.1,0.7c2.9,0,5.6-1.7,6.9-4.4
			C340.6,95.9,338.9,91.4,335.1,89.7z"/>
	</g>
</g>
<g>
	<g>
		<path class="st1" d="M367.7,152c-30.8-31.3-69.4-47.8-111.7-47.8c-42.2,0-80.8,16.5-111.7,47.8c-2.9,3-2.9,7.8,0.1,10.8
			c3,2.9,7.8,2.9,10.7-0.1c28-28.3,62.8-43.3,100.9-43.3c38.2,0,73.1,15,100.9,43.3c1.5,1.5,3.4,2.3,5.4,2.3c1.9,0,3.8-0.7,5.3-2.2
			C370.6,159.8,370.7,155,367.7,152z"/>
	</g>
</g>
<g>
	<g>
		<path class="st1" d="M256,134.5c-10.8,0-21.6,1.3-32,4c-4.1,1-6.5,5.2-5.5,9.2c1,4.1,5.2,6.5,9.2,5.5c9.2-2.3,18.7-3.5,28.2-3.5
			c62.8,0,113.9,51.1,113.9,113.9c0,4.2,3.4,7.6,7.6,7.6s7.6-3.4,7.6-7.6C385.1,192.4,327.2,134.5,256,134.5z"/>
	</g>
</g>
<g>
	<g>
		<path class="st1" d="M201.6,154.7c-2.1-3.6-6.7-4.8-10.4-2.7c-9.7,5.7-18.7,12.7-26.7,20.8c-23.6,23.9-37,56.1-37.5,90.7
			c-0.1,4.2,3.3,7.6,7.5,7.7c0,0,0.1,0,0.1,0c4.1,0,7.5-3.3,7.6-7.5c0.5-30.7,12.2-59.2,33.1-80.3c7.1-7.2,15-13.4,23.6-18.4
			C202.5,163,203.7,158.3,201.6,154.7z"/>
	</g>
</g>
<g>
	<g>
		<path class="st1" d="M330.4,198.8c-18.8-21.5-45.9-33.9-74.4-33.9c-26.5,0-51.3,10.4-69.9,29.2c-18.6,18.7-28.8,44.1-28.8,71.7
			c0,16.3-5.1,35.9-14.2,54.7l-4.3,7.6c-2,3.7-0.8,8.3,2.9,10.3c1.2,0.7,2.5,1,3.7,1c2.7,0,5.2-1.4,6.6-3.9l4.5-8
			c10.5-21.6,16-43,15.9-62.2c0-23.2,8.6-44.8,24.4-60.7c15.8-15.9,36.7-24.7,59.1-24.7c24.1,0,47.1,10.5,63,28.7
			c2.7,3.2,7.6,3.5,10.7,0.7C332.8,206.8,333.1,202,330.4,198.8z"/>
	</g>
</g>
<g>
	<g>
		<path class="st1" d="M368.8,351.1l-8.6-28c-4.8-22-5.2-42.9-5.5-55.5l-0.1-4c0-11.3-1.9-22.3-5.6-32.9c-1.4-3.9-5.7-6-9.7-4.6
			c-3.9,1.4-6,5.7-4.6,9.7c3.2,8.9,4.8,18.3,4.8,28l0.1,4.1c0.3,13.1,0.7,35,6,59l8.7,28.6c1,3.3,4,5.4,7.3,5.4
			c0.7,0,1.5-0.1,2.2-0.3C367.8,359.4,370,355.1,368.8,351.1z"/>
	</g>
</g>
<g>
	<g>
		<path class="st1" d="M346.7,386.2l-7.1-22.6c-12.5-39.1-14.9-83.1-15.3-100c0-37.7-30.7-68.3-68.3-68.3s-68.3,31.1-68.3,69.7
			c0,8-1.4,50.2-33.5,96.4c-2.4,3.4-1.5,8.2,1.9,10.6c3.4,2.4,8.2,1.5,10.6-1.9c33.8-48.7,36.3-92.8,36.2-105.4
			c0-29.9,23.8-54.2,53.1-54.2c29.3,0,53.1,23.8,53.1,53.3c0.5,22,3.4,64.9,16,104.4l7,22.5c1,3.2,4,5.3,7.3,5.3
			c0.7,0,1.5-0.1,2.3-0.3C345.7,394.4,347.9,390.2,346.7,386.2z"/>
	</g>
</g>
<g>
	<g>
		<path class="st1" d="M293.9,263.6c0-20.9-17-38-38-38s-38,17-38,38.2c0.1,2.5,1.8,62.1-46.4,124.9c-2.6,3.3-1.9,8.1,1.4,10.6
			c3.3,2.6,8.1,1.9,10.6-1.4c51.5-67.1,49.7-132,49.6-134.4c0-12.6,10.2-22.8,22.8-22.8c12.6,0,22.8,10.2,22.8,22.9
			c0.2,8.5,0.3,85.2-59,162.2c-2.6,3.3-1.9,8.1,1.4,10.6c1.4,1.1,3,1.6,4.6,1.6c2.3,0,4.5-1,6-3C294.3,354,294.2,272.4,293.9,263.6z
			"/>
	</g>
</g>
<g>
	<g>
		<path class="st1" d="M263.5,263.3c-0.2-4.2-3.5-7.5-7.9-7.2c-4.2,0.2-7.4,3.7-7.3,7.9c0,0.1,0.4,11.2-2.4,28.8
			c-0.7,4.1,2.2,8,6.3,8.7c0.4,0.1,0.8,0.1,1.2,0.1c3.7,0,6.9-2.7,7.5-6.4C264.1,275.9,263.6,263.8,263.5,263.3z"/>
	</g>
</g>
<g>
	<g>
		<path class="st1" d="M248.7,317.3c-4-1.2-8.2,1.1-9.4,5.1c-9.5,32.1-25.3,62-46.9,89.1c-2.6,3.3-2.1,8,1.2,10.7
			c1.4,1.1,3.1,1.7,4.7,1.7c2.2,0,4.4-1,5.9-2.9c22.9-28.6,39.5-60.3,49.6-94.3C255,322.7,252.7,318.5,248.7,317.3z"/>
	</g>
</g>
<g>
	<g>
		<path class="st1" d="M322.2,408.2l-9.2-29.1c-3.6-10.9-7-22.4-7.1-22.5c-0.9-3.1-3.6-5.3-6.8-5.4c-3.3-0.2-6.2,1.7-7.4,4.6
			c-0.2,0.4-17.1,40.2-36.5,70.7c-2.2,3.5-1.2,8.2,2.3,10.5c1.3,0.8,2.7,1.2,4.1,1.2c2.5,0,5-1.2,6.4-3.5
			c11.7-18.5,22.4-39.7,29.4-54.5c0.4,1.2,0.8,2.4,1.2,3.7l9.1,28.9c1.3,4,5.5,6.2,9.5,5C321.3,416.5,323.5,412.2,322.2,408.2z"/>
	</g>
</g>
</svg>
