<?xml version="1.0" encoding="utf-8"?>
<!-- Generator: Adobe Illustrator 25.2.3, SVG Export Plug-In . SVG Version: 6.00 Build 0)  -->
<svg version="1.1" id="Capa_1" xmlns="http://www.w3.org/2000/svg" xmlns:xlink="http://www.w3.org/1999/xlink" x="0px" y="0px"
	 viewBox="0 0 512 512" style="enable-background:new 0 0 512 512;" xml:space="preserve">
<style type="text/css">
	.st0{fill:#FEFEFE;}
	.st1{fill:#1AAA5A;}
	.st2{fill:#11703C;}
	.st3{fill:#A4AFC1;}
	.st4{fill:#262626;}
</style>
<g id="bg">
	<g>
		<path class="st0" d="M496.4,289.5c-53.8-82.4-48.1-166.8-74-206.5C396.5,43.3,319.2-25.1,136.6,94.1S0.5,343,29,386.7
			C162.6,591.1,591.7,435.4,496.4,289.5z"/>
	</g>
</g>
<g id="color">
	<g>
		<circle class="st1" cx="256" cy="256" r="32"/>
	</g>
	<g>
		<circle class="st1" cx="128" cy="256" r="32"/>
	</g>
	<g>
		<circle class="st1" cx="384" cy="256" r="32"/>
	</g>
	<g>
		<path class="st2" d="M256,256c0-11.8,6.5-22,16-27.6c-4.7-2.7-10.1-4.4-16-4.4c-17.7,0-32,14.3-32,32s14.3,32,32,32
			c5.9,0,11.3-1.7,16-4.4C262.5,278,256,267.8,256,256z"/>
	</g>
	<g>
		<path class="st2" d="M128,256c0-11.8,6.5-22,16-27.6c-4.7-2.7-10.1-4.4-16-4.4c-17.7,0-32,14.3-32,32s14.3,32,32,32
			c5.9,0,11.3-1.7,16-4.4C134.5,278,128,267.8,128,256z"/>
	</g>
	<g>
		<path class="st2" d="M384,256c0-11.8,6.5-22,16-27.6c-4.7-2.7-10.1-4.4-16-4.4c-17.7,0-32,14.3-32,32s14.3,32,32,32
			c5.9,0,11.3-1.7,16-4.4C390.5,278,384,267.8,384,256z"/>
	</g>
	<g>
		<g>
			<path class="st3" d="M62.3,65.6l10.1-10.1l20.1,20.1L82.5,85.7L62.3,65.6z"/>
		</g>
		<g>
			<path class="st3" d="M120.2,123.4l10.1-10.1l20.1,20.1l-10.1,10.1L120.2,123.4z"/>
		</g>
		<g>
			<path class="st3" d="M59.8,133.5l20.1-20.1L90,123.4l-20.1,20.1L59.8,133.5z"/>
		</g>
		<g>
			<path class="st3" d="M117.7,75.7l20.1-20.1l10.1,10.1l-20.1,20.1L117.7,75.7z"/>
		</g>
	</g>
	<g>
		<path class="st3" d="M426.7,451.6c-11.8,0-21.3-9.6-21.3-21.3s9.6-21.3,21.3-21.3c11.8,0,21.3,9.6,21.3,21.3
			S438.4,451.6,426.7,451.6z M426.7,423.1c-3.9,0-7.1,3.2-7.1,7.1s3.2,7.1,7.1,7.1c3.9,0,7.1-3.2,7.1-7.1S430.6,423.1,426.7,423.1z"
			/>
	</g>
</g>
<g id="regular">
	<g>
		<path class="st4" d="M256,298.7c-23.5,0-42.7-19.1-42.7-42.7s19.1-42.7,42.7-42.7s42.7,19.1,42.7,42.7S279.5,298.7,256,298.7z
			 M256,234.7c-11.8,0-21.3,9.6-21.3,21.3c0,11.8,9.6,21.3,21.3,21.3c11.8,0,21.3-9.6,21.3-21.3C277.3,244.2,267.8,234.7,256,234.7z
			"/>
	</g>
	<g>
		<path class="st4" d="M128,298.7c-23.5,0-42.7-19.1-42.7-42.7s19.1-42.7,42.7-42.7s42.7,19.1,42.7,42.7S151.5,298.7,128,298.7z
			 M128,234.7c-11.8,0-21.3,9.6-21.3,21.3c0,11.8,9.6,21.3,21.3,21.3s21.3-9.6,21.3-21.3C149.3,244.2,139.8,234.7,128,234.7z"/>
	</g>
	<g>
		<path class="st4" d="M384,298.7c-23.5,0-42.7-19.1-42.7-42.7s19.1-42.7,42.7-42.7c23.5,0,42.7,19.1,42.7,42.7
			S407.5,298.7,384,298.7z M384,234.7c-11.8,0-21.3,9.6-21.3,21.3c0,11.8,9.6,21.3,21.3,21.3s21.3-9.6,21.3-21.3
			C405.3,244.2,395.8,234.7,384,234.7z"/>
	</g>
</g>
</svg>
